<svg width="18" height="18" viewBox="0 0 18 18" fill="none" xmlns="http://www.w3.org/2000/svg">
<path d="M9.00004 0.857117C10.0798 0.857117 11.1154 1.28607 11.879 2.04961C12.6425 2.81315 13.0715 3.84874 13.0715 4.92855C13.0715 6.00836 12.6425 7.04394 11.879 7.80748C11.1154 8.57102 10.0798 8.99997 9.00004 8.99997C7.92023 8.99997 6.88464 8.57102 6.1211 7.80748C5.35756 7.04394 4.92861 6.00836 4.92861 4.92855C4.92861 3.84874 5.35756 2.81315 6.1211 2.04961C6.88464 1.28607 7.92023 0.857117 9.00004 0.857117ZM9.00004 11.0357C13.499 11.0357 17.1429 12.8577 17.1429 15.1071V17.1428H0.857178V15.1071C0.857178 12.8577 4.50111 11.0357 9.00004 11.0357Z" fill="#0041A3"/>
</svg>
