<svg width="18" height="18" viewBox="0 0 18 18" fill="none" xmlns="http://www.w3.org/2000/svg">
<path d="M11.8 4.31429H13.3429V15.1143H4.08571V4.31429H5.62857V3.54286C5.62857 3.13367 5.79112 2.74123 6.08046 2.45189C6.36981 2.16255 6.76224 2 7.17143 2H10.2571C10.6663 2 11.0588 2.16255 11.3481 2.45189C11.6374 2.74123 11.8 3.13367 11.8 3.54286V4.31429ZM14.1143 4.31429H14.8857C15.2949 4.31429 15.6873 4.47684 15.9767 4.76618C16.266 5.05552 16.4286 5.44795 16.4286 5.85714V13.5714C16.4286 13.9806 16.266 14.3731 15.9767 14.6624C15.6873 14.9517 15.2949 15.1143 14.8857 15.1143H14.1143V4.31429ZM3.31429 4.31429V15.1143H2.54286C2.13367 15.1143 1.74123 14.9517 1.45189 14.6624C1.16255 14.3731 1 13.9806 1 13.5714V5.85714C1 5.00857 1.69429 4.31429 2.54286 4.31429H3.31429ZM7.17143 3.54286V4.31429H10.2571V3.54286H7.17143Z" fill="#0041A3"/>
</svg>
