<svg width="18" height="18" viewBox="0 0 18 18" fill="none" xmlns="http://www.w3.org/2000/svg">
<path d="M4.17868 2.39997H8.19653V8.5714L6.1876 7.41426L4.17868 8.5714V2.39997ZM13.8215 0.857117H4.17868C3.75244 0.857117 3.34365 1.01967 3.04225 1.30901C2.74086 1.59835 2.57153 1.99078 2.57153 2.39997V14.7428C2.57153 15.152 2.74086 15.5445 3.04225 15.8338C3.34365 16.1231 3.75244 16.2857 4.17868 16.2857H13.8215C14.2478 16.2857 14.6566 16.1231 14.958 15.8338C15.2594 15.5445 15.4287 15.152 15.4287 14.7428V2.39997C15.4287 1.99078 15.2594 1.59835 14.958 1.30901C14.6566 1.01967 14.2478 0.857117 13.8215 0.857117Z" fill="#0041A3"/>
</svg>
